<?xml version="1.0" encoding="UTF-8"?>
<svg id="_Слой_2" data-name="Слой 2" xmlns="http://www.w3.org/2000/svg" viewBox="0 0 1000 1000">
  <defs>
    <style>
      .cls-1 {
        fill: #f9f1f2;
      }

      .cls-2 {
        fill: #fe91d0;
      }

      .cls-3 {
        fill: #f8d8d7;
      }

      .cls-4 {
        fill: #221f20;
      }

      .cls-5 {
        fill: #ad2c7b;
      }

      .cls-6 {
        fill: #dcbc9d;
      }

      .cls-7 {
        fill: #faed68;
      }

      .cls-8 {
        fill: #fadfdf;
      }
    </style>
  </defs>
  <g id="_Слой_1-2" data-name="Слой 1">
    <g>
      <circle class="cls-4" cx="500" cy="500" r="500"/>
      <g>
        <path class="cls-6" d="M469.47,175.13c20.32,0,40.63,0,60.95,0,64.71,2.82,127.99,13.82,189.74,33.43-.16,11.37-.85,22.75.92,34.07,6.59,42.22,28.74,74.49,61.96,100.69,21.06,16.61,36.3,35.91,45.68,57.73,13.77,32.04,11.63,61.81,10.29,74.37-.5,4.7-9.8,82.12-66.69,115.71-62.3,36.78-138.32-4.59-142.69,9.19-4.71,14.85,86.88,52.58,95.49,50.72.45-.1,3.46-.89,4.93.6,1.38,1.41.65,4.13.53,4.66-1.73,7.55,8.79,47.94,11.51,58.41,5.69,21.92,12.96,50.47,22.01,84.75-173.4,0-346.79,0-520.19,0-2.28,0-4.55-.11-6.83-.17,15.41-29.49,27.54-60.14,32.58-93.25,2.48-16.3,3.63-32.68,1.16-49.1-.36-2.41-.41-3.99.39-4.87,1.46-1.61,4.66-.85,5.25-.73,9.58,1.9,111.27-9.37,111.53-16.6.18-5.18-52.11,1.68-108.8-22.82-8.94-3.86-106.23-47.62-118.24-135-1.16-8.45-3.93-37.82,8.33-69.96,9.83-25.77,27.38-48.21,52.08-67.71,42.2-33.32,62.64-76.98,57.79-131.37,26.32-6.6,52.26-14.65,78.99-19.64,28.64-5.35,57.37-9.81,86.49-11.77,8.28-.56,16.55-1.16,24.85-1.35ZM268.22,410.61c-31.52-1.72-60.97,25.31-61.42,60.45-.43,32.78,27.83,61.23,60.54,60.98,35.69-.27,60.81-29.86,61.29-60.18.52-33.05-28.54-62.78-60.4-61.26ZM671.61,471.28c-1.2,33.51,27.2,60.49,61.05,60.76,32.35.26,60.75-27.98,60.4-60.31-.38-34.28-27.08-60.8-60.81-61.37-32.36-.55-62.45,28.43-60.63,60.93Z"/>
        <path class="cls-3" d="M237.07,799.31c-16.98-3.31-33.96-6.62-50.95-9.94,13.22-21.08,20.95-40.24,25.57-54.27,2.71-8.24,10.35-28.04,10.37-51.23,0-9.58-.57-19.01-1.29-28.55-1.22-16.21-9.36-26.18-22.81-34.49-34.76-21.46-58.2-52.66-73.74-90.1-8-19.28-10.42-36.51-11.62-45.68-3.15-23.95-1.23-43.04.05-52.4,1-7.32,2.86-17.91,6.67-30.27,12.92-41.96,37.77-75.19,72.51-101.87,13.96-10.72,24.4-23.39,31.03-37.95,7.65-16.81,8.45-43.27,8.45-43.27,0,0,18.71-4.46,47.83-11.39,4.85,54.39-15.59,98.05-57.79,131.37-24.71,19.51-42.26,41.94-52.08,67.71-.78,2.05-13.8,34.17-8.33,69.96,9.89,64.74,77.68,125.78,155.24,128.47,60.21,2.09,117.68-31.29,150.92-85.37-1.57,12.04-9.79,64.65-56.59,102.55-59.63,48.28-131.12,31.58-139.3,29.52,1.21,15.18,1.29,33.49-1.55,53.97-5.72,41.32-20.77,73.12-32.58,93.25Z"/>
        <path class="cls-8" d="M764.08,799.47c-10.69-18.19-24.35-46.57-30.96-83.54-4.5-25.2-4.45-47.29-3.09-64.28-16.57,1.06-70.01,2.39-122.91-33.19-51.48-34.62-70.62-82.79-76.18-98.68,16.82,19.21,47.99,49.49,95.79,68.94,20.77,8.45,41.36,15.74,67.98,16.03,73.58.81,136.99-56.17,144.29-129.34,5.38-53.97-13.43-98.55-55.97-132.1-33.22-26.19-55.37-58.47-61.96-100.69-1.77-11.32-1.08-22.7-.92-34.07,31.46,6.06,48.35,9.32,48.35,9.32,0,0,.25,16.62,1.87,24.24,3.12,14.69,9.8,28.18,19.44,40.76,8.85,11.55,20.69,19.84,31.63,29.05,28.22,23.77,47.52,53.55,58.12,88.54,19.48,64.32,8.81,123.87-31.64,177.59-14.92,19.81-33.34,36.12-55.18,48.3-4.97,2.77-6.84,7.77-8.67,12.78-9.62,26.31-2.38,70.64-2.38,70.64,3.92,17.89,12.15,45.22,30.97,75.49-16.19,4.74-32.38,9.47-48.57,14.21Z"/>
        <path class="cls-2" d="M268.22,410.61c31.87-1.53,60.92,28.21,60.4,61.26-.47,30.32-25.59,59.91-61.29,60.18-32.71.25-60.97-28.2-60.54-60.98.46-35.14,29.9-62.18,61.42-60.45ZM255.89,459.16c-13.82-.09-24.67,10.5-24.77,24.17-.09,12.78,11.92,24.51,25.01,24.42,12.74-.09,23.46-10.91,23.59-23.79.14-14.09-10.06-24.71-23.83-24.8Z"/>
        <path class="cls-2" d="M671.61,471.28c-1.82-32.5,28.27-61.48,60.63-60.93,33.73.58,60.44,27.09,60.81,61.37.35,32.33-28.04,60.57-60.4,60.31-33.85-.27-62.24-27.25-61.05-60.76ZM720.17,483.23c-.03,13.39,10.63,24.45,23.63,24.52,13.04.07,25.1-11.74,24.97-24.46-.14-13.18-11.02-24.07-24.12-24.13-14.24-.07-24.45,9.97-24.48,24.07Z"/>
        <path class="cls-5" d="M255.89,459.16c13.77.09,23.98,10.71,23.83,24.8-.13,12.88-10.86,23.7-23.59,23.79-13.09.1-25.1-11.63-25.01-24.42.1-13.67,10.95-24.26,24.77-24.17Z"/>
        <path class="cls-5" d="M720.17,481.95c.03-14.1,10.24-24.14,24.48-24.07,13.1.06,23.99,10.95,24.12,24.13.13,12.72-11.93,24.53-24.97,24.46-13-.07-23.67-11.13-23.63-24.52Z"/>
        <path class="cls-1" d="M277.21,865.36c-2.24-7.37-4.52-14.74-6.71-22.13-1.32-4.44-4.84-6.07-8.8-7.35-9.7-3.14-19.38-6.34-29.03-9.6-4.07-1.37-8.77-2.32-8.59-8.11.16-5.22,4.4-5.9,8.23-7.34,11.24-4.23,23.13-6.63,33.9-12.13,5.37-2.07,4.89-7.57,6.45-11.66,3.19-8.4,5.61-17.09,8.5-25.61,1.29-3.81,2.54-8.08,7.84-7.78,4.59.26,5.81,3.9,7.02,7.58,3.4,10.31,7.15,20.51,10.34,30.89,1.43,4.66,3.94,7.23,8.62,8.66,10.38,3.18,20.56,7,30.9,10.31,4.16,1.33,7.46,3.09,8.04,7.87-4.12,9.32-13.77,9.69-21.32,10.99-20.63,3.55-30.13,15.92-32.61,35.45-1.6,4.3-3.16,8.61-4.82,12.89-1.07,2.76-2.92,4.71-6.1,4.79-3.51.09-5.68-1.66-6.87-4.95-1.55-4.29-3.31-8.5-4.98-12.75Z"/>
        <path class="cls-1" d="M702.47,228.57c-1.43-4.7-2.88-9.39-4.28-14.1-.84-2.83-3.08-3.87-5.61-4.68-6.18-2-12.35-4.04-18.5-6.12-2.59-.87-5.59-1.48-5.47-5.17.1-3.32,2.81-3.76,5.24-4.68,7.16-2.69,14.74-4.22,21.6-7.73,3.42-1.32,3.12-4.82,4.11-7.43,2.03-5.35,3.58-10.89,5.42-16.32.82-2.43,1.62-5.15,4.99-4.96,2.93.17,3.7,2.48,4.48,4.83,2.17,6.57,4.56,13.07,6.59,19.68.91,2.97,2.51,4.6,5.49,5.52,6.61,2.03,13.1,4.46,19.69,6.57,2.65.85,4.75,1.97,5.12,5.01-2.63,5.94-8.77,6.17-13.58,7-13.15,2.26-19.2,10.14-20.78,22.59-1.02,2.74-2.01,5.49-3.07,8.21-.68,1.76-1.86,3-3.88,3.05-2.23.06-3.62-1.06-4.38-3.16-.99-2.73-2.11-5.42-3.17-8.12Z"/>
        <path class="cls-7" d="M326,116.03c-2.54-7.94-10.88-8.44-16.33-12.64-3.3-2.54-9.32-2.88-9.22-8.05.09-4.53,5.24-5.96,8.86-7.24,12.5-4.39,18.81-14.34,24.5-25.28,4.53-8.71,9.14-9.17,12.33-.53,5.35,14.45,16.34,21.81,29.08,28.14,6.79,3.38,6.28,5.76.19,10.45-6.98,5.37-17.41,5.88-21.5,15.26-2.98,5.04-6,10.05-8.94,15.12-3.48,6.01-6.64,5.58-9.93-.22-2.88-5.08-6.02-10.01-9.05-15.01Z"/>
      </g>
    </g>
  </g>
</svg>