<?xml version="1.0" encoding="UTF-8"?>
<svg id="_Слой_2" data-name="Слой 2" xmlns="http://www.w3.org/2000/svg" viewBox="0 0 1000 1000">
  <defs>
    <style>
      .cls-1 {
        fill: #f9f1f2;
      }

      .cls-2 {
        fill: #f4c264;
      }

      .cls-3 {
        fill: #ea46a3;
      }

      .cls-4 {
        fill: #ee95cc;
      }

      .cls-5 {
        fill: #fe91d0;
      }

      .cls-6 {
        fill: #fbee68;
      }

      .cls-7 {
        fill: #fbf4a8;
      }

      .cls-8 {
        fill: #fcf7c4;
      }

      .cls-9 {
        fill: #e953aa;
      }

      .cls-10 {
        fill: #ed9537;
      }

      .cls-11 {
        fill: #5e55a7;
      }

      .cls-12 {
        fill: #f2b64d;
      }

      .cls-13 {
        fill: #221f20;
      }

      .cls-14 {
        fill: #f0a243;
      }

      .cls-15 {
        fill: #ad2c7b;
      }

      .cls-16 {
        fill: #ac2c7b;
      }

      .cls-17 {
        fill: #faed68;
      }

      .cls-18 {
        fill: #f1a343;
      }

      .cls-19 {
        fill: #fdf8c5;
      }

      .cls-20 {
        fill: #ea5db0;
      }

      .cls-21 {
        fill: #e946a2;
      }
    </style>
  </defs>
  <g id="_Слой_1-2" data-name="Слой 1">
    <g>
      <circle class="cls-13" cx="500" cy="500" r="500"/>
      <g>
        <path class="cls-2" d="M968.69,548.9c-12.4,39.66-33.47,65.61-39.72,73.22-17.67,21.52-39.57,39.53-65.68,54.08-2.68,1.49-5.27,3.15-7.9,4.74-15.02,5.63-30.05,11.26-45.07,16.9-38.17,5.96-76.62,5.8-115.1,5.76-144.1-.15-288.2-.05-432.3-.04-24.35-.54-48.59-2.41-72.7-5.97-15.01-5.52-30.01-11.05-45.02-16.57,0,0,.07.08.07.08-.65-.46-1.3-.92-1.96-1.38-40.17-21.36-72.28-51.05-94.39-91.14-18.13-32.87-23.42-62.65-25.21-75.44-7.71-55.3,8.2-98.99,16.1-117.22,4.89-11.29,14.82-31.66,32.81-53.22,17-20.38,37.66-37.45,61.81-51.4,17.59-10.15,36.87-15.98,55.79-22.82,23.94-4.73,48.21-4.46,72.44-4.64,50.77.13,101.54.25,152.31.38,1.91,0,3.73-.22,5.06-1.83,2.81,1.86,5.97,2.02,9.19,1.84,127.02,2.34,254.13-4.9,381.08,3.97,1.88,2.49,4.94,2.5,7.51,3.26,29.53,8.64,55.36,21.78,77.57,39.36,32.34,25.6,51.33,56.52,59.42,72.46,5.13,10.1,40.09,81.76,13.88,165.61ZM281.61,673.77c16.39,2.83,32.92.82,49.37,1.56,7.54.34,10.41-2.35,10.27-10.27-.45-24.59-.16-49.2-.16-73.8,0-95.91-.17-191.82.25-287.73.04-9.86-2.89-12.11-12.09-11.67-17.09.81-34.24.43-51.36.55-14.64-.07-29.27-.09-43.91-.22-24.06-.22-46.89,5.66-68.53,15.41-77.65,34.99-126.63,114.77-111.78,205.33,12.01,73.26,54.63,122.81,123.58,150.02,24.74,9.76,50.73,11.45,76.8,12.25,9.14.28,18.55,2,27.58-1.42ZM367.87,482.02c0,60.41.19,120.82-.2,181.22-.06,9.22,2.1,12.3,11.85,12.25,80.33-.39,160.67-.22,241.01-.22q12.15,0,12.16-12.44c0-116.77,0-233.53,0-350.3q0-20.48-20.52-20.47c-74.73,0-149.46,0-224.19,0-3.11,0-6.42.52-9.29-.35-9.69-2.91-10.95,1.9-10.93,10.03.21,60.1.11,120.19.11,180.29ZM659.48,483.78c0,60.42.1,120.83-.13,181.25-.03,7.39,1.69,10.54,9.83,10.41,27.09-.44,54.2.36,81.28-.32,24.54-.62,48.99-2.82,72.33-11.51,83-30.92,138.66-113.82,124.57-210.34-12.96-88.8-93.49-161.67-184.88-161.21-30.52.15-61.04.34-91.56-.19-9.06-.16-11.67,2.64-11.62,11.6.34,60.1.18,120.21.18,180.31Z"/>
        <path class="cls-11" d="M143.32,679.72c.65.46,1.3.92,1.96,1.38-.65-.46-1.3-.92-1.96-1.38Z"/>
        <path class="cls-8" d="M367.87,482.02c0-60.1.1-120.19-.11-180.29-.03-8.13,1.23-12.94,10.93-10.03,2.87.86,6.18.34,9.29.35,74.73.01,149.46.01,224.19,0q20.52,0,20.52,20.47c0,116.77,0,233.53,0,350.3q0,12.42-12.16,12.44c-80.34,0-160.67-.17-241.01.22-9.75.05-11.91-3.03-11.85-12.25.39-60.41.2-120.81.2-181.22ZM491.39,559.77c4.12-1.97,5.46-6.58,8.83-9.27,20.27,33.13,61.29,40.98,91.27,18.81,21.49-15.89,30.24-44.89,20.92-69.94-8.27-22.23-30.12-31.14-58.08-23.66-17.54-30.95-25.23-64.49-25.9-99.79-.15-7.99-2.67-13.6-10.6-16.61-7.77-2.94-13.82-1.27-19.11,4.89-27.36,31.89-47.03,67.62-54.8,109.32-6.75-.96-13.22-4.76-20.34-2.01-17.41,1.41-30.78,11.96-36.36,28.72-8.82,26.51,3.74,58.04,28.73,72.08,25.25,14.19,56.63,8.97,75.44-12.55Z"/>
        <path class="cls-19" d="M659.48,483.78c0-60.11.16-120.21-.18-180.31-.05-8.96,2.56-11.76,11.62-11.6,30.51.53,61.04.34,91.56.19,91.39-.46,171.92,72.42,184.88,161.21,14.09,96.53-41.57,179.43-124.57,210.34-23.35,8.7-47.8,10.9-72.33,11.51-27.08.68-54.19-.12-81.28.32-8.13.13-9.86-3.02-9.83-10.41.23-60.42.13-120.83.13-181.25ZM794.07,559.74c4.23-1.91,5.41-6.76,8.98-9.31,1.39,2.06,2.62,4.25,4.19,6.17,16.34,19.96,37.13,29.11,62.68,23.46,24.13-5.34,39.97-20.36,46.44-44.61.7-3.01,1.73-5.99,2.04-9.04,2.59-25.1-9.27-49.12-38.23-54.04-8.35-1.42-15.83,2.52-23.85,2.71-16.88-31.2-24.99-64.61-25.23-100-.05-7.67-3.22-12.86-10.61-15.69-7.27-2.79-13.32-1.78-18.46,4.14-27.79,31.97-47.65,67.93-55.4,109.99-6.71-.96-13.15-4.65-20.23-2.04-16.56.97-28.2,9.55-34.77,24.26-11.78,26.35-.8,58.98,24.57,75.03,25.35,16.04,58.42,11.36,77.88-11.02Z"/>
        <path class="cls-8" d="M277.88,292.4c17.12-.12,34.27.26,51.36-.55,9.2-.43,12.13,1.81,12.09,11.67-.41,95.91-.25,191.82-.25,287.73,0,24.6-.28,49.21.16,73.8.14,7.92-2.73,10.61-10.27,10.27-16.45-.74-32.98,1.28-49.37-1.56-2.04-1.35-3.94-2.98-6.13-4-32.69-15.34-59.33-37.82-80.8-66.84-7.19-9.71-11.28-21.32-19.57-30.23,4.07-4.02,9.88-6,13.08-11.05,5.22-2.21,6.28-8.54,11.07-11.18,13.08,21.8,37.56,34.39,60.21,30.97,27.05-4.09,46.58-21.16,52.61-45.99.85-3.87,2.33-7.72,2.45-11.62.74-23.79-8.8-45.22-36.88-51.11-9-1.89-17,1.88-25.51,2.59-16.28-30.66-24.88-63.29-25.07-98.04-.04-6.88-1.27-13.14-7.9-16.66-7.13-3.8-14.2-4.12-20.7,1.6-.87-1.89-.53-3.53.77-5.16,15.4-19.28,33.49-35.46,54.19-48.99,8.1-5.29,18.63-6.84,24.45-15.63Z"/>
        <path class="cls-18" d="M567.73,776.42c-87.29-.02-174.58-.04-261.87-.06-17.55-7.05-32.84-16.58-39.34-35.78.82-7.44-.26-14.35-5.54-20.11,3.82-5.28,1.02-11.32,1.94-16.93,144.1,0,288.2-.11,432.3.04,38.48.04,76.93.2,115.1-5.76.07,12.1,1.42,24.25-1.48,36.24-5.9,24.46-27.36,42.34-52.57,42.47-53.54.28-107.08.02-160.63-.02,4.08-9.38,14.51-9.88,21.5-15.26,6.09-4.69,6.6-7.07-.19-10.45-12.74-6.33-23.74-13.69-29.08-28.14-3.2-8.64-7.8-8.18-12.33.53-5.69,10.94-12,20.89-24.5,25.28-3.62,1.27-8.77,2.71-8.86,7.24-.1,5.17,5.92,5.51,9.22,8.05,5.45,4.2,13.79,4.7,16.33,12.64ZM679.67,752.3c11.14.02,18.78-7.59,18.74-18.65-.03-9.32-9.34-18.58-18.67-18.6-9.67-.01-18.78,9.51-18.69,19.52.1,10.34,7.84,17.71,18.62,17.73ZM404.04,752.3c10.6-.05,17.72-7.34,17.82-18.23.09-10.11-8.88-19.19-18.8-19.01-8.6.15-18.78,10.72-18.44,19.13.46,11.09,8.06,18.18,19.42,18.12ZM480.9,752.2c11.44.21,19.49-7.26,19.34-17.96-.13-9.65-7.41-17.35-16.64-17.57-11.96-.29-20.31,6.24-20.7,16.2-.44,11.19,6.95,19.13,17.99,19.33ZM325.7,716.67c-10.47-.03-17.89,6.85-17.96,16.66-.08,11.52,6.86,18.73,18.18,18.87,10.91.14,18.59-6.92,18.93-17.42.34-10.45-7.73-18.08-19.16-18.11ZM757.57,716.67c-12.38-.05-17.89,5.15-18.02,17.04-.13,11.21,6.46,18.36,17.04,18.5,11.58.14,18.52-6.61,18.49-17.98-.04-12.17-5.36-17.5-17.51-17.55Z"/>
        <path class="cls-7" d="M277.88,292.4c-5.82,8.79-16.35,10.34-24.45,15.63-20.7,13.53-38.79,29.71-54.19,48.99-1.3,1.63-1.64,3.27-.77,5.16,0,0-.46-.3-.46-.3-1.28.11-1.95.79-1.95,2.09l.22-.15c-2.25.15-2.45,1.75-2.46,3.48l.09-.14c-.65.8-1.29,1.59-1.94,2.39-1.96,2.76-3.86,5.56-5.89,8.26-21.22,28.27-36.99,59.03-43.22,94.18-6.81,1.79-13.39-3.54-20.23-.61-19.24,1.74-32.55,12.24-37.43,30.81-5.39,20.51-1.47,39.51,12.31,55.79,19.4,22.91,45.06,27.56,77.6,14.73,8.29,8.92,12.38,20.52,19.56,30.24,21.47,29.02,48.11,51.5,80.8,66.84,2.19,1.03,4.09,2.65,6.13,4-9.03,3.42-18.44,1.7-27.58,1.42-26.07-.8-52.05-2.49-76.8-12.25-68.95-27.21-111.57-76.76-123.58-150.02-14.85-90.56,34.13-170.33,111.78-205.33,21.65-9.75,44.48-15.63,68.53-15.41,14.63.13,29.27.15,43.91.22Z"/>
        <path class="cls-14" d="M724.48,188.92c10.27.15,20.54.24,30.81.45,30.46.6,54.42,24.22,55.21,54.56.21,8.09-.11,16.19-.19,24.29-126.95-8.87-254.06-1.63-381.08-3.97,4.81-13.84,12.16-25.4,26.61-31.16,3.45-1.37,8.64-2.2,8.62-7.23-.01-4.84-5.14-6.4-8.43-7.59-13.82-5-21.12-15.26-25.26-28.56,42.59-.18,85.17-.36,127.76-.54,1.67,4.24,3.43,8.46,4.98,12.75,1.2,3.3,3.36,5.05,6.87,4.95,3.17-.08,5.03-2.03,6.1-4.79,1.66-4.28,3.22-8.59,4.82-12.89,47.72-.09,95.45-.18,143.17-.27ZM619.93,228.08c.07-10.47-7.39-17.9-18.13-18.07-10.94-.17-19.38,7.88-19.16,18.25.21,9.42,9.26,18.76,18.41,19,9.51.25,18.82-9.21,18.89-19.18ZM680.21,210.1c-11.45-.14-19.18,7.05-19.16,17.82.02,9.39,9.11,19.31,17.73,19.34,9.08.03,19.32-9.89,19.61-18.99.31-9.85-7.89-18.04-18.18-18.17ZM541.42,228.6c.13-11.15-6.48-18.36-16.96-18.51-11.13-.16-18.41,6.46-18.58,16.88-.19,12.2,7.03,20.38,17.88,20.26,10.29-.11,17.53-7.76,17.65-18.64ZM739.41,228.02c0,11.07,6.97,18.68,17.45,19.1,10.46.42,18.36-7.81,18.36-19.12,0-10.98-6.97-17.98-17.92-17.98-10.91,0-17.9,7.03-17.89,18.01Z"/>
        <path class="cls-14" d="M420.04,262.41c-1.33,1.6-3.15,1.83-5.06,1.83-50.77-.13-101.54-.25-152.31-.37.07-7.92.13-15.85.19-23.78,3.83-5.67,4.25-12.02,3.66-18.56,9.75-14.78,22-26.48,39.37-31.84,37.97-.07,75.95-.15,113.93-.22-4.7,14.87-14.93,24.29-28.91,30.59-8.72,3.93-8.85,6.85.02,11,14.17,6.63,24.26,16.4,29.12,31.37ZM343.41,228.43c.11-10.67-7.15-18.27-17.59-18.41-10.56-.15-18.18,7.28-18.22,17.77-.05,11.38,7.52,19.5,18.05,19.37,10.29-.13,17.65-7.9,17.76-18.73Z"/>
        <path class="cls-10" d="M305.89,189.67c-17.37,5.36-29.62,17.06-39.37,31.84-1.32-1.71-2.61-3.44-3.97-5.12-5.41-6.68-12.78-7.53-20.34-5.81-7.42,1.68-11.2,7.43-12.7,14.61-1.68,8.06,2.27,13.9,8.24,18.48,7.55,5.8,14.15,4.71,25.1-3.6-.06,7.93-.13,15.86-.19,23.78-24.24.17-48.5-.1-72.44,4.63.01-12.06-1.47-24.16,1.37-36.13,5.92-24.91,27.31-42.36,52.9-42.98,10.54-.25,21.08-.32,31.62-.47,9.93.25,19.85.5,29.78.76Z"/>
        <path class="cls-10" d="M262.92,703.55c-.92,5.61,1.88,11.65-1.94,16.92-1.28-.85-2.51-1.81-3.86-2.54-8.02-4.3-15.4-3.38-21.96,2.99-6.23,6.05-7.76,13.2-4.21,21.11,3.56,7.9,11.53,11.57,20.82,10.2,7.22-1.06,10.83-6.5,14.74-11.65,6.5,19.19,21.79,28.73,39.34,35.78-21.38.07-42.78.74-64.14.05-27.39-.88-50.56-25.01-51.6-52.8-.33-8.66.05-17.35.11-26.03,24.1,3.55,48.35,5.42,72.7,5.96Z"/>
        <path class="cls-17" d="M420.04,262.41c-4.86-14.96-14.95-24.74-29.12-31.37-8.87-4.15-8.73-7.07-.02-11,13.98-6.3,24.22-15.71,28.91-30.59,3.8-6.19,7.4-3.62,10.96.25,4.14,13.3,11.44,23.56,25.26,28.56,3.29,1.19,8.42,2.75,8.43,7.59.01,5.03-5.18,5.85-8.62,7.23-14.45,5.76-21.8,17.31-26.61,31.16-3.22.18-6.38.02-9.19-1.84Z"/>
        <path class="cls-1" d="M558.54,189.17c-2.24-7.37-4.52-14.74-6.71-22.13-1.32-4.44-4.84-6.07-8.8-7.35-9.7-3.14-19.38-6.34-29.03-9.6-4.07-1.37-8.77-2.32-8.59-8.11.16-5.22,4.4-5.9,8.23-7.34,11.24-4.23,23.13-6.63,33.9-12.13,5.37-2.07,4.89-7.57,6.45-11.66,3.19-8.4,5.61-17.09,8.5-25.61,1.29-3.81,2.54-8.08,7.84-7.78,4.59.26,5.81,3.9,7.02,7.58,3.4,10.31,7.15,20.51,10.34,30.89,1.43,4.66,3.94,7.23,8.62,8.66,10.38,3.18,20.56,7,30.9,10.31,4.16,1.33,7.46,3.09,8.04,7.87-4.12,9.32-13.77,9.69-21.32,10.99-20.63,3.55-30.13,15.92-32.61,35.45-1.6,4.3-3.16,8.61-4.82,12.89-1.07,2.76-2.92,4.71-6.1,4.79-3.51.09-5.68-1.66-6.87-4.95-1.55-4.29-3.31-8.5-4.98-12.75Z"/>
        <path class="cls-6" d="M567.73,776.42c-2.54-7.94-10.88-8.44-16.33-12.64-3.3-2.54-9.32-2.88-9.22-8.05.09-4.53,5.24-5.96,8.86-7.24,12.5-4.39,18.81-14.34,24.5-25.28,4.53-8.71,9.14-9.17,12.33-.53,5.35,14.45,16.34,21.81,29.08,28.14,6.79,3.38,6.28,5.76.19,10.45-6.98,5.37-17.41,5.88-21.5,15.26-2.98,5.04-6,10.05-8.94,15.12-3.48,6.01-6.64,5.58-9.93-.22-2.88-5.08-6.02-10.01-9.05-15.01Z"/>
        <path class="cls-9" d="M554.33,475.71c27.95-7.48,49.81,1.42,58.08,23.66,9.31,25.05.56,54.05-20.92,69.94-29.98,22.17-71,14.32-91.27-18.81,6.62-16.86,7.82-33.91,1.71-51.19,5.76-8.79,14.75-12.84,24.08-16.39,9.67-1.48,19.61-1.93,28.32-7.2ZM585.91,511.2c2.36,0,3.91.06,5.45-.01,3.32-.14,7.32.81,9.09-2.97,1.85-3.96-1.69-6.18-3.98-8.54-9.58-9.94-23.28-12.06-34.68-5.42-2.69,1.57-5.56,3.26-5.25,6.94.28,3.33,3.26,4.42,5.81,5.32,7.86,2.78,15.82,5.32,23.54,4.69Z"/>
        <path class="cls-16" d="M554.33,475.71c-8.71,5.27-18.65,5.72-28.32,7.2-12.37-23.33-19.22-48.52-23.82-75.28-13.83,16.53-27.62,50.12-30.64,73.45-9.65-.91-19.03-2.8-27.63-7.55,7.77-41.7,27.44-77.43,54.8-109.32,5.29-6.16,11.34-7.83,19.11-4.89,7.93,3,10.45,8.62,10.6,16.61.67,35.3,8.36,68.84,25.9,99.79Z"/>
        <path class="cls-20" d="M443.92,473.52c8.6,4.75,17.98,6.64,27.63,7.55,12.91,1.43,21.01,10.89,30.38,18.23,6.11,17.29,4.91,34.33-1.71,51.19-3.36,2.69-4.71,7.3-8.83,9.27-36.9,7.24-66.47-19.19-72.04-45.81-3.07-14.68-1.51-28.73,4.23-42.44,7.12-2.75,13.59,1.05,20.34,2.01ZM467.02,499.84c-3.31.19-7.19-.88-9.1,2.96-1.59,3.21-.03,5.94,2.26,8.35,7.04,7.43,14.1,14.85,23.53,19.33,6.36,3.03,9.3,1.03,9.18-5.98-.21-12.33-12.39-23.93-25.87-24.67Z"/>
        <path class="cls-3" d="M423.58,471.51c-5.75,13.71-7.31,27.76-4.23,42.44,5.57,26.62,35.14,53.06,72.04,45.81-18.81,21.52-50.19,26.74-75.44,12.55-24.98-14.04-37.55-45.58-28.73-72.08,5.58-16.76,18.95-27.32,36.36-28.72Z"/>
        <path class="cls-15" d="M746.62,473.5c7.75-42.06,27.61-78.02,55.4-109.99,5.14-5.92,11.2-6.92,18.46-4.14,7.4,2.84,10.56,8.02,10.61,15.69.25,35.39,8.36,68.8,25.23,100-8.23,6.62-18.26,6.81-28.05,7.83-11.69-23.8-19.4-48.88-23.5-77.1-15.7,24.39-26.7,48.39-30.68,75.29-9.57-1.03-18.94-2.8-27.47-7.58Z"/>
        <path class="cls-20" d="M828.28,482.89c9.79-1.02,19.82-1.2,28.05-7.83,8.02-.19,15.5-4.13,23.85-2.71,28.96,4.93,40.82,28.95,38.23,54.04-.31,3.05-1.35,6.03-2.05,9.04-2.5,1.19-5.16,2.13-7.49,3.59-39.93,24.99-91.33-1.51-94.58-48.8,3.87-3.97,9.44-4.68,13.99-7.34ZM888.72,511.12c2.4,0,3.95.09,5.49-.02,3.26-.22,7.57,1.05,8.86-3.09,1.1-3.54-1.84-6.29-4.26-8.71-9.47-9.5-22.83-11.5-34.05-5.08-2.72,1.55-5.57,3.25-5.35,6.9.2,3.37,3.22,4.45,5.77,5.34,7.88,2.75,15.83,5.35,23.54,4.66Z"/>
        <path class="cls-20" d="M746.62,473.5c8.54,4.78,17.9,6.55,27.48,7.58.91.21,1.81.46,2.72.62,11.55,2.05,18.7,11.48,28.26,16.86-.08,2.48-.11,4.9,1.03,7.28,4.46,9.28,5.12,18.97,2.37,28.81-1.49,5.35-3.59,10.52-5.42,15.78-3.57,2.55-4.75,7.4-8.98,9.31-38.66,7.36-67.26-19.86-72.42-47.53-2.59-13.9-1.1-27.66,4.74-40.74,7.08-2.61,13.51,1.08,20.23,2.04ZM769.91,499.85c-7.97-.46-12.38,3.33-8.96,8.09,7.05,9.82,15.54,18.63,27.13,23.2,5.35,2.11,7.88-.56,7.69-6.5-.38-12.06-12.63-24.03-25.87-24.79Z"/>
        <path class="cls-3" d="M726.39,471.46c-5.84,13.08-7.33,26.84-4.74,40.74,5.16,27.68,33.76,54.89,72.42,47.53-19.46,22.38-52.54,27.06-77.88,11.02-25.37-16.06-36.35-48.68-24.57-75.03,6.58-14.72,18.21-23.3,34.77-24.26Z"/>
        <path class="cls-21" d="M803.05,550.43c1.83-5.25,3.93-10.43,5.42-15.78,2.75-9.83,2.1-19.53-2.37-28.81-1.14-2.38-1.11-4.79-1.03-7.28,2.63-3.26,5.35-6.44,9.21-8.33,3.25,47.3,54.66,73.8,94.58,48.8,2.33-1.46,4.98-2.41,7.49-3.59-6.47,24.25-22.31,39.27-46.44,44.61-25.55,5.66-46.34-3.5-62.68-23.46-1.57-1.92-2.8-4.11-4.19-6.17Z"/>
        <path class="cls-16" d="M142.86,471.98c6.24-35.14,22-65.91,43.22-94.18,2.03-2.7,3.93-5.5,5.89-8.26.65-.8,1.29-1.59,1.94-2.39,0,0-.09.14-.09.14,1.51-.68,2.44-1.76,2.46-3.48,0,0-.22.15-.22.15,1.29-.1,1.88-.85,1.96-2.09,0,0,.46.3.46.3,6.5-5.72,13.57-5.4,20.7-1.6,6.63,3.53,7.86,9.79,7.9,16.66.19,34.76,8.79,67.39,25.07,98.04-8.22,6.78-18.51,5.98-28.12,7.67-11.51-23.88-19.42-48.93-23.46-77.03-15.93,24.27-26.37,48.45-30.93,75.06-9.27-1.98-19.53-1.02-26.78-9.01Z"/>
        <path class="cls-20" d="M224.03,482.96c9.61-1.69,19.9-.89,28.12-7.67,8.51-.7,16.51-4.47,25.51-2.59,28.08,5.89,37.62,27.33,36.88,51.11-.12,3.89-1.6,7.75-2.45,11.62-3.09,1.45-6.35,2.62-9.23,4.4-40.72,25.24-91.44-6.7-92.37-49.84,3.9-3.54,8.99-4.77,13.55-7.03ZM283.07,511.13c2.64,0,4.2.07,5.75-.02,3.58-.21,7.92.93,9.29-4,1.23-4.39-1.95-6.95-4.8-9.32-10.35-8.59-22.79-9.6-33.75-2.92-5.85,3.57-5.91,7.98.38,10.83,7.62,3.45,15.54,6.35,23.13,5.42Z"/>
        <path class="cls-20" d="M142.86,471.98c7.25,7.99,17.51,7.03,26.78,9.01,12.85,1.7,21.33,10.93,31.02,18.06,2.49,9.56,4.88,19,4.53,29.16-.28,8.09-5.7,14.4-5.93,22.24-4.78,2.64-5.85,8.97-11.07,11.18-9.58-.76-19.33-.15-28.64-3.26-34.19-11.43-55.39-50.17-36.93-87.01,6.84-2.93,13.43,2.4,20.23.61ZM163.26,499.84c-2.32.26-6.06-.88-7.66,2.57-1.51,3.26,1.36,5.67,2.93,8.25,5.55,9.07,14.52,14.09,23.13,19.49,2.72,1.7,6.04,2.56,8.74.51,2.5-1.89,1.63-5.19,1.2-7.86-2.03-12.51-14.71-22.94-28.34-22.96Z"/>
        <path class="cls-21" d="M122.62,471.37c-18.46,36.84,2.73,75.58,36.93,87.01,9.3,3.11,19.05,2.5,28.64,3.26-3.2,5.06-9,7.03-13.08,11.05-32.53,12.83-58.2,8.18-77.6-14.73-13.79-16.28-17.71-35.28-12.31-55.79,4.88-18.57,18.19-29.07,37.43-30.81Z"/>
        <path class="cls-21" d="M199.26,550.46c.23-7.84,5.65-14.15,5.93-22.24.35-10.16-2.04-19.6-4.53-29.16,2.22-4.16,5.72-6.93,9.82-9.06.93,43.14,51.65,75.08,92.37,49.84,2.88-1.78,6.14-2.95,9.23-4.4-6.03,24.83-25.56,41.89-52.61,45.99-22.65,3.43-47.13-9.16-60.21-30.97Z"/>
        <path class="cls-17" d="M266.51,740.58c-3.91,5.15-7.52,10.59-14.74,11.65-9.29,1.36-17.27-2.3-20.82-10.2-3.56-7.91-2.03-15.06,4.21-21.11,6.56-6.36,13.93-7.29,21.96-2.99,1.35.72,2.58,1.68,3.86,2.54,5.28,5.76,6.35,12.67,5.54,20.11Z"/>
        <path class="cls-17" d="M679.67,752.3c-10.78-.02-18.53-7.39-18.62-17.73-.09-10.01,9.02-19.53,18.69-19.52,9.33.01,18.64,9.28,18.67,18.6.04,11.07-7.6,18.67-18.74,18.65Z"/>
        <path class="cls-17" d="M404.04,752.3c-11.37.06-18.97-7.03-19.42-18.12-.35-8.4,9.84-18.97,18.44-19.13,9.91-.18,18.89,8.9,18.8,19.01-.1,10.9-7.21,18.18-17.82,18.23Z"/>
        <path class="cls-12" d="M480.9,752.2c-11.04-.2-18.43-8.14-17.99-19.33.39-9.96,8.74-16.49,20.7-16.2,9.23.22,16.51,7.92,16.64,17.57.14,10.69-7.9,18.16-19.34,17.96Z"/>
        <path class="cls-12" d="M325.7,716.67c11.43.03,19.5,7.66,19.16,18.11-.35,10.5-8.02,17.56-18.93,17.42-11.32-.15-18.27-7.35-18.18-18.87.07-9.81,7.48-16.69,17.96-16.66Z"/>
        <path class="cls-12" d="M757.57,716.67c12.15.05,17.47,5.39,17.51,17.55.03,11.38-6.91,18.13-18.49,17.98-10.58-.13-17.17-7.28-17.04-18.5.13-11.88,5.64-17.09,18.02-17.04Z"/>
        <path class="cls-8" d="M196.28,363.82c-.03,1.72-.96,2.81-2.46,3.48.02-1.73.21-3.33,2.46-3.48Z"/>
        <path class="cls-8" d="M193.91,367.16c-.65.8-1.29,1.59-1.94,2.39.65-.8,1.29-1.59,1.94-2.39Z"/>
        <path class="cls-8" d="M198.01,361.88c-.08,1.23-.67,1.99-1.96,2.09,0-1.3.67-1.98,1.96-2.09Z"/>
        <path class="cls-17" d="M619.93,228.08c-.07,9.98-9.37,19.44-18.89,19.18-9.15-.24-18.2-9.58-18.41-19-.23-10.37,8.22-18.42,19.16-18.25,10.74.17,18.2,7.6,18.13,18.07Z"/>
        <path class="cls-12" d="M680.21,210.1c10.29.13,18.49,8.32,18.18,18.17-.29,9.1-10.54,19.02-19.61,18.99-8.62-.03-17.71-9.95-17.73-19.34-.02-10.77,7.71-17.96,19.16-17.82Z"/>
        <path class="cls-12" d="M541.42,228.6c-.12,10.88-7.36,18.53-17.65,18.64-10.85.12-18.07-8.06-17.88-20.26.16-10.42,7.44-17.04,18.58-16.88,10.48.15,17.08,7.35,16.96,18.51Z"/>
        <path class="cls-17" d="M739.41,228.02c0-10.97,6.98-18.01,17.89-18.01,10.95,0,17.92,7,17.92,17.98,0,11.32-7.9,19.54-18.36,19.12-10.48-.42-17.44-8.03-17.45-19.1Z"/>
        <path class="cls-12" d="M262.86,240.08c-10.95,8.31-17.55,9.4-25.1,3.6-5.98-4.59-9.93-10.42-8.24-18.48,1.5-7.18,5.28-12.92,12.7-14.61,7.56-1.72,14.93-.86,20.34,5.81,1.36,1.68,2.65,3.41,3.97,5.12.59,6.55.17,12.89-3.66,18.56Z"/>
        <path class="cls-17" d="M343.41,228.43c-.11,10.83-7.47,18.6-17.76,18.73-10.53.13-18.1-7.98-18.05-19.37.05-10.49,7.66-17.92,18.22-17.77,10.44.14,17.69,7.74,17.59,18.41Z"/>
        <path class="cls-8" d="M501.93,499.3c-9.37-7.34-17.47-16.79-30.38-18.23,3.02-23.33,16.81-56.92,30.64-73.45,4.6,26.77,11.45,51.95,23.82,75.28-9.33,3.55-18.32,7.61-24.08,16.39Z"/>
        <path class="cls-4" d="M585.91,511.2c-7.72.63-15.67-1.91-23.54-4.69-2.55-.9-5.53-2-5.81-5.32-.31-3.68,2.56-5.37,5.25-6.94,11.39-6.64,25.1-4.52,34.68,5.42,2.28,2.37,5.83,4.59,3.98,8.54-1.77,3.79-5.77,2.83-9.09,2.97-1.54.07-3.09.01-5.45.01Z"/>
        <path class="cls-5" d="M467.02,499.85c13.48.73,25.66,12.33,25.87,24.66.12,7.01-2.82,9.01-9.18,5.98-9.42-4.49-16.49-11.91-23.53-19.33-2.29-2.42-3.86-5.15-2.26-8.35,1.91-3.84,5.79-2.78,9.1-2.95Z"/>
        <path class="cls-8" d="M814.29,490.23c-3.87,1.9-6.58,5.07-9.21,8.33-9.56-5.38-16.71-14.81-28.26-16.86-.91-.16-1.81-.41-2.72-.62,3.98-26.9,14.98-50.9,30.68-75.29,4.11,28.22,11.81,53.29,23.5,77.1-4.55,2.66-10.12,3.37-13.99,7.34Z"/>
        <path class="cls-4" d="M888.72,511.12c-7.7.69-15.66-1.91-23.54-4.66-2.55-.89-5.57-1.97-5.77-5.34-.22-3.65,2.63-5.34,5.35-6.9,11.22-6.41,24.58-4.42,34.05,5.08,2.42,2.42,5.36,5.17,4.26,8.71-1.29,4.14-5.59,2.87-8.86,3.09-1.54.1-3.1.02-5.49.02Z"/>
        <path class="cls-4" d="M769.91,499.85c13.24.76,25.49,12.73,25.87,24.79.19,5.94-2.34,8.6-7.69,6.5-11.59-4.56-20.08-13.38-27.13-23.2-3.42-4.76.99-8.55,8.96-8.09Z"/>
        <path class="cls-8" d="M210.47,490c-4.09,2.13-7.6,4.9-9.82,9.06-9.69-7.13-18.17-16.36-31.02-18.06,4.56-26.61,15-50.79,30.93-75.06,4.04,28.11,11.95,53.15,23.46,77.03-4.56,2.26-9.66,3.49-13.55,7.03Z"/>
        <path class="cls-4" d="M283.07,511.13c-7.59.93-15.51-1.97-23.13-5.42-6.29-2.85-6.23-7.26-.38-10.83,10.96-6.68,23.39-5.67,33.75,2.92,2.85,2.36,6.03,4.93,4.8,9.32-1.38,4.93-5.71,3.79-9.29,4-1.55.09-3.1.02-5.75.02Z"/>
        <path class="cls-4" d="M163.26,499.84c13.64.02,26.31,10.44,28.34,22.96.43,2.67,1.3,5.96-1.2,7.86-2.7,2.05-6.02,1.19-8.74-.51-8.61-5.4-17.58-10.41-23.13-19.49-1.58-2.58-4.45-4.99-2.93-8.25,1.6-3.45,5.34-2.31,7.66-2.57Z"/>
      </g>
    </g>
  </g>
</svg>