<?xml version="1.0" encoding="UTF-8"?>
<svg id="_Слой_2" data-name="Слой 2" xmlns="http://www.w3.org/2000/svg" viewBox="0 0 1000 1000">
  <defs>
    <style>
      .cls-1 {
        fill: #f9f1f2;
      }

      .cls-2 {
        fill: #7558b3;
      }

      .cls-3 {
        fill: #7559b3;
      }

      .cls-4 {
        fill: #ca4971;
      }

      .cls-5 {
        fill: #f6f6fa;
      }

      .cls-6 {
        fill: #e35b81;
      }

      .cls-7 {
        fill: #221f20;
      }

      .cls-8 {
        fill: #dcdbdb;
      }

      .cls-9 {
        fill: #faed68;
      }

      .cls-10 {
        fill: #f7f9fc;
      }
    </style>
  </defs>
  <g id="_Слой_1-2" data-name="Слой 1">
    <g>
      <circle class="cls-7" cx="500" cy="500" r="500"/>
      <g>
        <path class="cls-6" d="M859.26,358.77c-9.82,21.39-21.96,41.2-39,57.72-12.18,11.81-25.5,22.15-40.81,29.48-14.85,7.11-27.22,16.75-35.95,30.83-.91-1.01-1.93-1.93-2.7-3.03-15.24-21.63-36.18-30.55-62.45-30.07-37.58.69-75.18.14-112.77.2-12.3.02-24.44-1.61-36.37-4.16-89.58-19.2-148.84-107.81-130.97-197.82,4.06-20.45,11.1-39.1,21.23-55.99,12.91-21.53,27.71-34.88,35.23-41.61,8.14-7.28,15.61-12.73,21.29-16.56-2.77.03-5.54.06-8.32.09,84.2-.92,168.4-1.84,252.6-2.75,1.07.34,2.88.92,5.09,1.69,66.07,22.95,146.68,88.5,145.6,170.55-.28,21.25-4.98,41.48-11.7,61.42ZM482.66,329.68c17.68.11,31.71-13.77,31.66-31.32-.05-17.19-13.85-31.04-31.03-31.15-17.78-.12-31.53,13.56-31.5,31.34.03,17.43,13.52,31.03,30.88,31.13ZM597.88,329.68c17.7.09,31.61-13.79,31.49-31.42-.12-17.3-13.81-30.98-31.09-31.04-17.56-.07-31.67,13.98-31.59,31.45.07,17.09,13.98,30.92,31.19,31.01ZM712.95,329.69c17.57.09,31.8-13.98,31.71-31.36-.08-17.08-14.02-31-31.16-31.11-17.63-.11-31.75,13.87-31.68,31.37.07,17.17,13.93,31.02,31.12,31.1Z"/>
        <path class="cls-10" d="M597.82,467.2c38.94,26.75,64.28,62.71,74.25,109.21,20.7,96.56-49.58,192.95-147.82,202.92-18.77,1.9-37.53.97-56.29,1.14-25.59.24-51.19.48-76.77-.06-26.37-.55-46.98,9.43-61.95,31.11-6.36-24.31-21.44-40.8-44.32-50.99-12.73-5.67-23.89-14.26-34.04-23.71-43.39-40.45-62.02-90.53-54.96-149.33,8.11-67.63,60.31-125.48,126.42-141.84,7.32-1.81,14.68-3.48,22.02-5.21,19.48-.09,38.96-.19,58.44-.28,33.36,20.68,69.77,28.25,108.76,26.95,28.72-.96,57.5,0,86.25.1ZM402.26,582.38c-17.18.09-31.13,13.93-31.28,31.03-.15,17.29,14.27,31.65,31.69,31.55,17.07-.1,31.15-14.12,31.29-31.15.14-17.37-14.14-31.53-31.7-31.43ZM287.12,582.4c-17.67.09-31.32,14.06-31.08,31.81.23,17.05,14.33,30.81,31.5,30.73,17.2-.08,30.92-13.88,30.98-31.15.06-17.88-13.54-31.48-31.39-31.39ZM548.82,613.33c-.1-17.38-13.65-30.86-31.08-30.92-17.76-.06-31.46,13.68-31.36,31.46.1,17.19,13.93,31.02,31.09,31.08,17.56.06,31.46-13.95,31.36-31.62Z"/>
        <path class="cls-4" d="M597.82,467.2c-28.75-.1-57.54-1.05-86.25-.1-39,1.3-75.4-6.26-108.76-26.95-33.29-23.01-58.22-52.79-69.7-91.92-9.78-33.35-10.96-64.53-3.76-93.51,11.49-46.27,40.48-74.73,51.69-85.51,3.63-3.49,6.78-6.24,8.98-8.09,20.7-14.83,42.89-26.47,68.04-31.73,3.17-.66,6.41-1.03,9.61-1.54,1.83.33,3.67.67,6.53,1.19-6.22,6.32-13.47,10.04-19.5,15.27-30.11,26.1-48.71,58.59-56.46,97.59-17.87,90.01,41.39,178.62,130.97,197.82,11.92,2.56,24.07,4.18,36.37,4.16,37.59-.06,75.19.5,112.77-.2,26.27-.49,47.21,8.44,62.45,30.07.77,1.1,1.8,2.02,2.7,3.03-9.48,20.85-7.08,43.03-7.22,64.92-.03,4.41-.42,8.73-2.74,12.58-5.63,9.34-17.53,9.25-24.32-.47-12.66-18.13-28.78-41.34-32.93-48.59-8.54-14.93-28.3-31.8-78.47-38.04Z"/>
        <path class="cls-8" d="M344.37,440.44c-7.34,1.73-14.7,3.4-22.02,5.21-66.11,16.35-118.3,74.21-126.42,141.84-7.06,58.8,11.57,108.88,54.96,149.33,10.14,9.46,21.31,18.04,34.04,23.71,22.88,10.19,37.96,26.67,44.32,50.99-12.76,18.94-25.43,37.94-38.35,56.78-3.65,5.32-8.81,7.92-15.54,5.94-7.27-2.14-10.74-7.31-10.92-14.5-.28-11.43-.11-22.87-.11-34.31,0-28.08-12.84-48.49-37.66-60.92-35.8-17.92-62.95-44.23-80.61-80.23-49.09-100.1,12.86-222.48,122.56-241.61,25.04-4.36,50.45-2.72,75.73-2.22Z"/>
        <path class="cls-5" d="M482.66,329.68c-17.36-.11-30.85-13.71-30.88-31.13-.03-17.78,13.72-31.46,31.5-31.34,17.19.12,30.98,13.97,31.03,31.15.05,17.55-13.97,31.42-31.66,31.32Z"/>
        <path class="cls-5" d="M597.88,329.68c-17.21-.09-31.12-13.92-31.19-31.01-.07-17.47,14.04-31.52,31.59-31.45,17.28.06,30.97,13.74,31.09,31.04.12,17.64-13.79,31.51-31.49,31.42Z"/>
        <path class="cls-5" d="M712.95,329.69c-17.2-.08-31.05-13.93-31.12-31.1-.07-17.5,14.04-31.48,31.68-31.37,17.14.11,31.08,14.02,31.16,31.11.08,17.38-14.14,31.45-31.71,31.36Z"/>
        <path class="cls-3" d="M402.26,582.38c17.56-.09,31.84,14.06,31.7,31.43-.14,17.02-14.22,31.04-31.29,31.15-17.42.11-31.85-14.26-31.69-31.55.15-17.11,14.1-30.94,31.28-31.03Z"/>
        <path class="cls-2" d="M287.12,582.4c17.85-.09,31.45,13.51,31.39,31.39-.06,17.28-13.78,31.07-30.98,31.15-17.16.08-31.27-13.68-31.5-30.73-.24-17.75,13.41-31.72,31.08-31.81Z"/>
        <path class="cls-2" d="M548.82,613.33c.1,17.67-13.8,31.68-31.36,31.62-17.16-.06-30.99-13.89-31.09-31.08-.1-17.78,13.6-31.53,31.36-31.46,17.43.06,30.98,13.55,31.08,30.92Z"/>
        <path class="cls-1" d="M224.92,370.89c-2.24-7.37-4.52-14.74-6.71-22.13-1.32-4.44-4.84-6.07-8.8-7.35-9.7-3.14-19.38-6.34-29.03-9.6-4.07-1.37-8.77-2.32-8.59-8.11.16-5.22,4.4-5.9,8.23-7.34,11.24-4.23,23.13-6.63,33.9-12.13,5.37-2.07,4.89-7.57,6.45-11.66,3.19-8.4,5.61-17.09,8.5-25.61,1.29-3.81,2.54-8.08,7.84-7.78,4.59.26,5.81,3.9,7.02,7.58,3.4,10.31,7.15,20.51,10.34,30.89,1.43,4.66,3.94,7.23,8.62,8.66,10.38,3.18,20.56,7,30.9,10.31,4.16,1.33,7.46,3.09,8.04,7.87-4.12,9.32-13.77,9.69-21.32,10.99-20.63,3.55-30.13,15.92-32.61,35.45-1.6,4.3-3.16,8.61-4.82,12.89-1.07,2.76-2.92,4.71-6.1,4.79-3.51.09-5.68-1.66-6.87-4.95-1.55-4.29-3.31-8.5-4.98-12.75Z"/>
        <path class="cls-1" d="M777.95,630.19c-1.45-4.78-2.93-9.55-4.35-14.34-.85-2.88-3.13-3.93-5.7-4.76-6.29-2.03-12.56-4.11-18.82-6.22-2.64-.89-5.69-1.5-5.57-5.26.1-3.38,2.86-3.82,5.33-4.76,7.28-2.74,14.99-4.3,21.98-7.87,3.48-1.34,3.17-4.9,4.18-7.56,2.07-5.44,3.64-11.08,5.51-16.6.84-2.47,1.64-5.24,5.08-5.04,2.98.17,3.77,2.52,4.55,4.91,2.2,6.69,4.64,13.3,6.7,20.02.93,3.02,2.55,4.68,5.59,5.61,6.73,2.06,13.32,4.54,20.03,6.68,2.7.86,4.83,2.01,5.21,5.1-2.67,6.04-8.92,6.28-13.82,7.12-13.37,2.3-19.53,10.32-21.14,22.98-1.04,2.79-2.05,5.58-3.12,8.35-.69,1.79-1.89,3.05-3.95,3.1-2.27.06-3.68-1.07-4.45-3.21-1.01-2.78-2.15-5.51-3.23-8.26Z"/>
        <path class="cls-9" d="M552.39,871.28c-2.54-7.94-10.88-8.44-16.33-12.64-3.3-2.54-9.32-2.88-9.22-8.05.09-4.53,5.24-5.96,8.86-7.24,12.5-4.39,18.81-14.34,24.5-25.28,4.53-8.71,9.14-9.17,12.33-.53,5.35,14.45,16.34,21.81,29.08,28.14,6.79,3.38,6.28,5.76.19,10.45-6.98,5.37-17.41,5.88-21.5,15.26-2.98,5.04-6,10.05-8.94,15.12-3.48,6.01-6.64,5.58-9.93-.22-2.88-5.08-6.02-10.01-9.05-15.01Z"/>
      </g>
    </g>
  </g>
</svg>