<?xml version="1.0" encoding="UTF-8"?>
<svg id="_Слой_2" data-name="Слой 2" xmlns="http://www.w3.org/2000/svg" viewBox="0 0 67 56">
  <defs>
    <style>
      .cls-1 {
        fill: #f2f2f2;
        stroke-width: 0px;
      }
    </style>
  </defs>
  <g id="_Слой_1-2" data-name="Слой 1">
    <path class="cls-1" d="m36,56h-16C8.95,56,0,47.05,0,36v-16C0,8.95,8.95,0,20,0h16c11.05,0,20,8.95,20,20v16c-.03,1.88.18,5.3,2,9,2.74,5.57,7.34,8.16,9,9-.84.31-6.84,2.38-12-1-1.93-1.27-3.1-2.87-3.77-4.03-.34.4-.7.79-1.08,1.17-4.38,4.33-10.14,5.54-14.14,5.86Z"/>
  </g>
</svg>