<?xml version="1.0" encoding="UTF-8"?>
<svg id="_Слой_2" data-name="Слой 2" xmlns="http://www.w3.org/2000/svg" viewBox="0 0 54.1 54.1">
  <defs>
    <style>
      .cls-1 {
        fill: #f2f2f2;
        stroke-width: 0px;
      }
    </style>
  </defs>
  <g id="_Слой_1-2" data-name="Слой 1">
    <path class="cls-1" d="m36.24,27.05l15.95-15.95c2.54-2.54,2.54-6.65,0-9.19h0c-2.54-2.54-6.65-2.54-9.19,0l-15.95,15.95L11.1,1.9C8.56-.63,4.44-.63,1.9,1.9-.63,4.44-.63,8.56,1.9,11.1l15.95,15.95L1.9,43c-2.54,2.54-2.54,6.65,0,9.19h0c2.54,2.54,6.65,2.54,9.19,0l15.95-15.95,15.95,15.95c2.54,2.54,6.65,2.54,9.19,0s2.54-6.65,0-9.19l-15.95-15.95Z"/>
  </g>
</svg>