<?xml version="1.0" encoding="UTF-8"?>
<svg id="_Слой_2" data-name="Слой 2" xmlns="http://www.w3.org/2000/svg" viewBox="0 0 53.83 53.83">
  <defs>
    <style>
      .cls-1 {
        fill: #fff;
        stroke-width: 0px;
      }
    </style>
  </defs>
  <g id="_Слой_1-2" data-name="Слой 1">
    <g>
      <path class="cls-1" d="m16.44,47.45c-.25-.43-.49-.86-.71-1.31h-6.08c-1.08,0-1.96-.88-1.96-1.96V9.65c0-1.08.88-1.96,1.96-1.96h11.82c2.34,0,4.13.77,5.45,1.91.67.58,1.2,1.26,1.63,1.98.48.81.83,1.67,1.03,2.52.46,1.96.32,4.32-.95,6.34.36.28.74.53,1.15.73,1.9.95,3.6,2.2,5.07,3.7,2.39-3.56,3.28-8.02,2.21-12.54-.4-1.69-1.05-3.25-1.88-4.65-1.89-3.18-4.79-5.56-8.27-6.78-1.7-.59-3.53-.91-5.45-.91h-11.82C4.33,0,0,4.33,0,9.65v34.52c0,5.32,4.33,9.65,9.65,9.65h11.82c.44,0,.87-.02,1.3-.05-2.58-1.54-4.77-3.7-6.32-6.33Z"/>
      <path class="cls-1" d="m44.17,0h-11.82c-.44,0-.87.02-1.3.05,2.58,1.54,4.77,3.7,6.32,6.33.25.43.49.86.71,1.31h6.08c1.08,0,1.96.88,1.96,1.96v34.52c0,1.08-.88,1.96-1.96,1.96h-11.82c-2.34,0-4.13-.77-5.45-1.91-.67-.58-1.2-1.26-1.63-1.98-.48-.81-.83-1.67-1.03-2.52-.46-1.96-.32-4.32.95-6.34-.36-.28-.74-.53-1.15-.73-1.9-.95-3.6-2.2-5.07-3.7-2.39,3.56-3.28,8.02-2.21,12.54.4,1.69,1.05,3.25,1.88,4.65,1.89,3.18,4.79,5.56,8.27,6.78,1.7.59,3.53.91,5.45.91h11.82c5.32,0,9.65-4.33,9.65-9.65V9.65c0-5.32-4.33-9.65-9.65-9.65Z"/>
      <path class="cls-1" d="m28.55,42.24s.03.03.05.05c.98.85,2.25,1.29,3.77,1.29h4.05c.26-.67.48-1.37.65-2.09,1.07-4.52.18-8.97-2.2-12.53-.48-.72-1-1.41-1.6-2.05-1.29-1.37-2.84-2.54-4.63-3.44-.66-.33-1.22-.7-1.72-1.11-.71-.58-1.28-1.23-1.71-1.91-1.27-2.02-1.42-4.38-.95-6.35.2-.85.55-1.71,1.03-2.52-.02-.01-.03-.03-.05-.05-.98-.85-2.25-1.29-3.77-1.29h-4.05c-.26.67-.48,1.37-.65,2.09-1.07,4.52-.18,8.97,2.2,12.53.48.72,1,1.41,1.6,2.05,1.29,1.37,2.84,2.54,4.63,3.44.66.33,1.22.7,1.72,1.11.71.58,1.28,1.23,1.71,1.91,1.27,2.02,1.42,4.38.95,6.35-.2.85-.55,1.71-1.03,2.52Z"/>
    </g>
  </g>
</svg>