<?xml version="1.0" encoding="UTF-8"?>
<svg id="_Слой_2" data-name="Слой 2" xmlns="http://www.w3.org/2000/svg" viewBox="0 0 2397.33 3486.12">
  <defs>
    <style>
      .cls-1 {
        fill: #fff;
      }
    </style>
  </defs>
  <g id="Layer_1" data-name="Layer 1">
    <g>
      <g>
        <path class="cls-1" d="M732.28,2113.16c-11.31-19.05-21.8-38.51-31.56-58.31h-270.86c-48.19,0-87.38-39.19-87.38-87.37V429.85c0-48.19,39.19-87.38,87.38-87.38h526.28c104.19,0,183.94,34.37,242.53,85.23,29.78,25.86,53.64,56.18,72.78,88.31,21.46,36.03,36.89,74.4,45.83,112.3,20.67,87.49,14.19,192.48-42.36,282.36,16.2,12.64,32.97,23.53,51.34,32.72,84.77,42.4,160.41,98.1,225.91,164.86,106.46-158.69,146.02-357.07,98.45-558.61-17.77-75.28-46.55-144.55-83.74-207.16-84.16-141.71-213.26-247.74-368.21-301.87C1123.09,14.21,1041.51,0,956.13,0H429.85C192.84,0,0,192.84,0,429.85v1537.63c0,237.01,192.84,429.85,429.85,429.85h526.28c19.49,0,38.72-.95,57.79-2.4-114.81-68.69-212.29-165.02-281.65-281.77Z"/>
        <path class="cls-1" d="M1967.48,0h-526.28c-19.49,0-38.72.95-57.79,2.4,114.81,68.69,212.29,165.01,281.65,281.77,11.31,19.05,21.8,38.51,31.56,58.31h270.86c48.19,0,87.38,39.19,87.38,87.38v1537.63c0,48.19-39.19,87.37-87.38,87.37h-526.28c-104.19,0-183.94-34.36-242.53-85.23-29.78-25.86-53.64-56.18-72.79-88.31-21.46-36.03-36.89-74.4-45.83-112.3-20.67-87.49-14.19-192.47,42.36-282.36-16.2-12.64-32.97-23.53-51.34-32.72-84.79-42.4-160.42-98.1-225.91-164.86-106.46,158.69-146.02,357.07-98.45,558.61,17.77,75.28,46.55,144.55,83.74,207.16,84.16,141.71,213.26,247.74,368.21,301.87,75.57,26.4,157.15,40.61,242.53,40.61h526.28c237.01,0,429.85-192.84,429.85-429.85V429.85c0-237.01-192.84-429.85-429.85-429.85Z"/>
        <path class="cls-1" d="M1271.45,1881.31c.72.65,1.31,1.47,2.05,2.11,43.78,38.02,100.2,57.28,167.7,57.28h180.39c11.43-29.95,21.43-60.81,29.03-93,47.5-201.26,8.1-399.36-98.02-557.94-21.33-31.88-44.38-62.75-71.05-91.08-57.34-60.92-126.33-113.17-206.3-153.15-29.19-14.59-54.33-31.31-76.59-49.33-31.84-25.79-56.82-54.65-76.11-85.24-56.7-89.94-63.19-195.05-42.51-282.63,8.94-37.9,24.37-76.26,45.83-112.3-.72-.65-1.31-1.47-2.05-2.11-43.78-38.02-100.2-57.27-167.7-57.27h-180.39c-11.43,29.95-21.43,60.81-29.03,93-47.5,201.26-8.1,399.36,98.02,557.94,21.33,31.88,44.38,62.75,71.05,91.08,57.34,60.92,126.33,113.17,206.3,153.15,29.19,14.59,54.33,31.31,76.59,49.33,31.84,25.79,56.82,54.65,76.11,85.24,56.7,89.94,63.19,195.05,42.51,282.63-8.94,37.9-24.37,76.26-45.83,112.3Z"/>
      </g>
      <g>
        <path class="cls-1" d="M572.27,2851.38c1.96,40.41-11.97,71.79-41.78,94.15-27.46,20.4-63.76,30.6-108.86,30.6h-207.14v-417.8h204.78c42.75,0,76,9.62,99.74,28.83,23.73,19.23,35.6,46.88,35.6,82.97s-15.3,64.73-45.9,87.09c39.62,18.44,60.8,49.83,63.55,94.15ZM351.01,2662.48v50.02h35.31c10.59,0,18.24-1.86,22.95-5.59,4.71-3.72,7.06-10.1,7.06-19.12,0-16.86-10-25.3-30.01-25.3h-35.31ZM398.09,2871.97c10.98,0,19.02-2.06,24.13-6.18,5.09-4.12,7.65-11.27,7.65-21.48,0-17.65-10.59-26.48-31.78-26.48h-47.08v54.14h47.08Z"/>
        <path class="cls-1" d="M899.44,2826.07l79.44,150.05h-157.71l-59.43-129.46h-21.18v129.46h-136.52v-417.8h198.31c47.46,0,84.93,12.94,112.39,38.84,27.45,25.89,41.19,62.18,41.19,108.86,0,54.53-18.83,94.55-56.49,120.05ZM785.87,2736.04c8.62,0,15.69-2.94,21.18-8.83,5.49-5.88,8.24-13.33,8.24-22.36s-2.56-15.59-7.65-20.89c-5.1-5.3-12.36-7.94-21.77-7.94h-45.31v60.02h45.31Z"/>
        <path class="cls-1" d="M1247.8,2558.33l148.29,417.8h-147.11l-15.3-57.08h-110.63l-15.89,57.08h-142.99l147.7-417.8h135.93ZM1152.47,2811.95h52.37l-25.89-97.1-26.48,97.1Z"/>
        <path class="cls-1" d="M1649.12,2558.33h127.11v417.8h-127.69l-111.22-177.12v177.12h-127.11v-417.8h132.99l105.92,168.88v-168.88Z"/>
        <path class="cls-1" d="M1998.07,2558.33c59.63,0,105.82,15.11,138.58,45.31,32.75,30.21,49.14,71.99,49.14,125.34v75.91c0,53.75-16.48,95.73-49.43,125.93-32.95,30.21-79.05,45.31-138.29,45.31h-174.77v-417.8h174.77ZM2049.26,2801.36v-68.85c0-19.61-4.51-33.93-13.53-42.96-9.03-9.02-23.93-13.53-44.72-13.53h-31.19v181.83h31.19c21.18,0,36.19-4.41,45.02-13.24,8.83-8.83,13.24-23.24,13.24-43.25Z"/>
        <path class="cls-1" d="M338.95,3068.32h127.11v417.8h-127.11v-178.3l-48.84,102.98h-90.03l-49.43-102.98v178.3H23.54v-417.8h127.69l93.56,198.31,94.15-198.31Z"/>
        <path class="cls-1" d="M764.98,3068.32l148.29,417.8h-147.11l-15.3-57.08h-110.63l-15.89,57.08h-142.99l147.7-417.8h135.93ZM669.65,3321.94h52.37l-25.89-97.1-26.48,97.1Z"/>
        <path class="cls-1" d="M1222.79,3336.07l79.44,150.05h-157.71l-59.43-129.46h-21.18v129.46h-136.52v-417.8h198.31c47.46,0,84.93,12.94,112.39,38.84,27.45,25.89,41.19,62.18,41.19,108.86,0,54.53-18.83,94.55-56.49,120.05ZM1109.22,3246.03c8.62,0,15.69-2.94,21.18-8.83,5.49-5.88,8.24-13.33,8.24-22.36s-2.56-15.59-7.65-20.89c-5.1-5.3-12.36-7.94-21.77-7.94h-45.31v60.02h45.31Z"/>
        <path class="cls-1" d="M1588.21,3269.57l114.16,216.55h-156.53l-72.97-151.23h-17.07v151.23h-136.52v-417.8h136.52v148.29h10.59l78.26-148.29h149.47l-105.92,201.25Z"/>
        <path class="cls-1" d="M1849.48,3367.84h175.95v118.28h-312.47v-417.8h308.35v117.69h-171.83v30.6h138.87v117.69h-138.87v33.54Z"/>
        <path class="cls-1" d="M2043.08,3068.32h354.25v117.69h-108.86v300.11h-136.52v-300.11h-108.86v-117.69Z"/>
      </g>
    </g>
  </g>
</svg>