<?xml version="1.0" encoding="UTF-8"?>
<svg id="_Слой_2" data-name="Слой 2" xmlns="http://www.w3.org/2000/svg" viewBox="0 0 25.38 27">
  <defs>
    <style>
      .cls-1 {
        fill: #fbb03b;
        stroke-width: 0px;
      }
    </style>
  </defs>
  <g id="_Слой_1-2" data-name="Слой 1">
    <path class="cls-1" d="m12.03.02c.94-.05,2.82-.05,3.58.53.94.72.64,1.43.89,2.37.36,1.36,1.63,2.21,3.03,2.09,1.19-.11,1.82-1.18,3.2-.37.87.51,2.6,3.54,2.65,4.53.07,1.57-1.11,1.64-1.82,2.54s-.83,2.15-.26,3.19c.67,1.21,2.23,1.27,2.07,3.03-.09,1.04-1.86,4.09-2.82,4.52-1.35.61-1.87-.36-3.02-.46-1.1-.1-2.16.41-2.72,1.36-.69,1.17-.04,2.47-1.43,3.25-.94.53-3.74.47-4.81.22-.63-.14-1.26-.69-1.46-1.32-.15-.45-.08-.91-.2-1.38-.34-1.38-1.62-2.26-3.04-2.13-1.2.11-1.8,1.18-3.2.37C1.79,21.87.06,18.82,0,17.83c-.07-1.57,1.11-1.64,1.82-2.54s.83-2.15.26-3.19C1.41,10.89-.18,10.82.02,9.02c.11-.97,1.86-4,2.75-4.44,1.39-.69,1.92.32,3.1.43,1.41.13,2.7-.75,3.04-2.13.19-.77,0-1.36.58-2.03C10.12.11,11.12.07,12.03.02Zm.54,9.47c-3.08.09-4.9,3.5-3.28,6.13,1.47,2.37,4.94,2.55,6.6.29,1.99-2.7.03-6.52-3.32-6.43Z"/>
  </g>
</svg>